# xmcd
#
# Track frame offsets:
#	150
#	12160
#	26067
#	38997
#	57722
#	87062
#	97432
#	116125
#	130172
#	151772
#	166395
#	179125
#	194530
#	212675
#	226915
#	239790
#	261147
#	275855
#
# Disc length: 3832
#
# Revision: 1
# Processed by: cddbd v1.5.1PL0 Copyright (c) Steve Scherf et al.
# Submitted via: CDex 1.51
# Normalized: r0:TDELIM( - ),TSWAP
#
DISCID=120ef612
DTITLE=Various Artist - Totally Jazz Vocals
DYEAR=1900
DGENRE=Jazz
TTITLE0=Dinah Washington - Blue Skies
TTITLE1=Mel Torme - Lulu's Back in Town
TTITLE2=Annie Ross - How About You
TTITLE3=Nina Simone - I Loves You Porgy
TTITLE4=Carmen McCrae - 'Round Midnight
TTITLE5=Chet Baker - My Funny Valentine
TTITLE6=Sarah Vaughan - I Guess I'll Hang My Tears Out To Dry
TTITLE7=Billie Holiday - I'll Get By
TTITLE8=Bunny Berigan - I Can't Get Started With You
TTITLE9=Clea Laine - Don't Get Around Much Anymore
TTITLE10=Joe Williams with Count Basie - Until I Met You (Corner Pocket)
TTITLE11=Betty Carter and Ray Bryant - Moonlight in Vermont
TTITLE12=Tony Bennett - Green Dolphin Street
TTITLE13=Abbey Lincoln - Brother Where Are You
TTITLE14=Johnny Hartman - Ain't Misbehavin'
TTITLE15=Ernestine Anderson - What a Diff'rence a Day Made
TTITLE16=Ella Fitzgerald - I've Got You Under My Skin
TTITLE17=Nat King Cole - The Late Late Show
EXTD=
EXTT0=
EXTT1=
EXTT2=
EXTT3=
EXTT4=
EXTT5=
EXTT6=
EXTT7=
EXTT8=
EXTT9=
EXTT10=
EXTT11=
EXTT12=
EXTT13=
EXTT14=
EXTT15=
EXTT16=
EXTT17=
PLAYORDER=
